<?xml version="1.0" encoding="UTF-8" standalone="no"?>
<!DOCTYPE svg PUBLIC "-//W3C//DTD SVG 1.1//EN"
 "http://www.w3.org/Graphics/SVG/1.1/DTD/svg11.dtd">
<!-- Generated by graphviz version 2.38.0 (20140413.2041)
 -->
<!-- Title: G Pages: 1 -->
<svg width="618pt" height="618pt"
 viewBox="0.00 0.00 618.00 618.00" xmlns="http://www.w3.org/2000/svg" xmlns:xlink="http://www.w3.org/1999/xlink">
<g id="graph0" class="graph" transform="scale(1 1) rotate(0) translate(4 614)">
<title>G</title>
<polygon fill="white" stroke="none" points="-4,4 -4,-614 614,-614 614,4 -4,4"/>
<g id="clust1" class="cluster"><title>cluster_Global</title>
<path fill="none" stroke="gray" d="M20,-44C20,-44 590,-44 590,-44 596,-44 602,-50 602,-56 602,-56 602,-590 602,-590 602,-596 596,-602 590,-602 590,-602 20,-602 20,-602 14,-602 8,-596 8,-590 8,-590 8,-56 8,-56 8,-50 14,-44 20,-44"/>
<text text-anchor="middle" x="305" y="-589.2" font-family="Times New Roman,serif" font-size="11.00" fill="gray">Global</text>
</g>
<!-- \\ffmpeg_animated_gif -->
<g id="node1" class="node"><title>\\ffmpeg_animated_gif</title>
<polygon fill="none" stroke="black" points="587.5,-574 442.5,-574 442.5,-538 587.5,-538 587.5,-574"/>
<text text-anchor="middle" x="515" y="-553.2" font-family="Courier,monospace" font-size="11.00">ffmpeg_animated_gif</text>
</g>
<!-- \\ffmpeg_frame -->
<g id="node2" class="node"><title>\\ffmpeg_frame</title>
<polygon fill="none" stroke="black" points="564,-520 466,-520 466,-484 564,-484 564,-520"/>
<text text-anchor="middle" x="515" y="-499.2" font-family="Courier,monospace" font-size="11.00">ffmpeg_frame</text>
</g>
<!-- \\ffmpeg_movie -->
<g id="node3" class="node"><title>\\ffmpeg_movie</title>
<polygon fill="none" stroke="black" points="564,-466 466,-466 466,-430 564,-430 564,-466"/>
<text text-anchor="middle" x="515" y="-445.2" font-family="Courier,monospace" font-size="11.00">ffmpeg_movie</text>
</g>
<!-- \\FFmpegAnimatedGif -->
<g id="node4" class="node"><title>\\FFmpegAnimatedGif</title>
<polygon fill="none" stroke="black" points="580.5,-196 449.5,-196 449.5,-160 580.5,-160 580.5,-196"/>
<text text-anchor="middle" x="515" y="-175.2" font-family="Courier,monospace" font-size="11.00">FFmpegAnimatedGif</text>
</g>
<!-- \\Serializable -->
<g id="node13" class="node"><title>\\Serializable</title>
<ellipse fill="none" stroke="black" cx="71.5" cy="-18" rx="53.8905" ry="18"/>
<text text-anchor="middle" x="71.5" y="-14.3" font-family="Times New Roman,serif" font-size="14.00" fill="gray">\Serializable</text>
</g>
<!-- \\FFmpegAnimatedGif&#45;&gt;\\Serializable -->
<g id="edge1" class="edge"><title>\\FFmpegAnimatedGif&#45;&gt;\\Serializable</title>
<path fill="none" stroke="black" stroke-dasharray="1,5" d="M449.101,-163.028C402.673,-152.277 338.707,-137.382 282.5,-124"/>
</g>
<!-- \\FFmpegAutoloader -->
<g id="node5" class="node"><title>\\FFmpegAutoloader</title>
<polygon fill="none" stroke="black" points="577.5,-358 452.5,-358 452.5,-322 577.5,-322 577.5,-358"/>
<text text-anchor="middle" x="515" y="-337.2" font-family="Courier,monospace" font-size="11.00">FFmpegAutoloader</text>
</g>
<!-- \\FFmpegFrame -->
<g id="node6" class="node"><title>\\FFmpegFrame</title>
<polygon fill="none" stroke="black" points="560.5,-142 469.5,-142 469.5,-106 560.5,-106 560.5,-142"/>
<text text-anchor="middle" x="515" y="-121.2" font-family="Courier,monospace" font-size="11.00">FFmpegFrame</text>
</g>
<!-- \\FFmpegFrame&#45;&gt;\\Serializable -->
<g id="edge2" class="edge"><title>\\FFmpegFrame&#45;&gt;\\Serializable</title>
<path fill="none" stroke="black" stroke-dasharray="1,5" d="M469.34,-130.053C422.188,-135.049 346.035,-139.126 282.5,-124"/>
</g>
<!-- \\FFmpegMovie -->
<g id="node7" class="node"><title>\\FFmpegMovie</title>
<polygon fill="none" stroke="black" points="560.5,-88 469.5,-88 469.5,-52 560.5,-52 560.5,-88"/>
<text text-anchor="middle" x="515" y="-67.2" font-family="Courier,monospace" font-size="11.00">FFmpegMovie</text>
</g>
<!-- \\FFmpegMovie&#45;&gt;\\Serializable -->
<g id="edge3" class="edge"><title>\\FFmpegMovie&#45;&gt;\\Serializable</title>
<path fill="none" stroke="black" stroke-dasharray="1,5" d="M280.5,-124C204.845,-105.988 197.289,-73.279 127,-40 123.814,-38.4916 120.495,-36.9896 117.138,-35.5199"/>
<polygon fill="none" stroke="black" points="118.223,-32.1781 107.651,-31.4844 115.483,-38.6195 118.223,-32.1781"/>
<path fill="none" stroke="black" stroke-dasharray="1,5" d="M469.201,-85.4701C412.366,-104.22 317.529,-132.34 282.5,-124"/>
</g>
<!-- \\AbstractOutputProvider -->
<g id="node8" class="node"><title>\\AbstractOutputProvider</title>
<polygon fill="none" stroke="black" points="364,-277 199,-277 199,-241 364,-241 364,-277"/>
<text text-anchor="start" x="247.5" y="-262.2" font-family="Courier,monospace" font-size="11.00">«abstract»</text>
<text text-anchor="start" x="207" y="-250.2" font-family="Courier,monospace" font-size="11.00">AbstractOutputProvider</text>
</g>
<!-- \\OutputProvider -->
<g id="node12" class="node"><title>\\OutputProvider</title>
<polygon fill="none" stroke="black" points="127,-277 16,-277 16,-241 127,-241 127,-277"/>
<text text-anchor="middle" x="71.5" y="-256.2" font-family="Courier,monospace" font-size="11.00">OutputProvider</text>
</g>
<!-- \\AbstractOutputProvider&#45;&gt;\\OutputProvider -->
<g id="edge4" class="edge"><title>\\AbstractOutputProvider&#45;&gt;\\OutputProvider</title>
<path fill="none" stroke="black" stroke-dasharray="1,5" d="M198.89,-259C178.534,-259 156.976,-259 137.541,-259"/>
<polygon fill="none" stroke="black" points="137.287,-255.5 127.287,-259 137.287,-262.5 137.287,-255.5"/>
</g>
<!-- \\AbstractOutputProvider&#45;&gt;\\Serializable -->
<g id="edge5" class="edge"><title>\\AbstractOutputProvider&#45;&gt;\\Serializable</title>
<path fill="none" stroke="black" stroke-dasharray="1,5" d="M268.089,-240.697C233.259,-189.415 136.519,-47.5654 127,-40 124.938,-38.3612 122.738,-36.8292 120.448,-35.3992"/>
<polygon fill="none" stroke="black" points="121.73,-32.1105 111.277,-30.3785 118.368,-38.2506 121.73,-32.1105"/>
</g>
<!-- \\FFmpegOutputProvider -->
<g id="node9" class="node"><title>\\FFmpegOutputProvider</title>
<polygon fill="none" stroke="black" points="591,-304 439,-304 439,-268 591,-268 591,-304"/>
<text text-anchor="middle" x="515" y="-283.2" font-family="Courier,monospace" font-size="11.00">FFmpegOutputProvider</text>
</g>
<!-- \\FFmpegOutputProvider&#45;&gt;\\AbstractOutputProvider -->
<g id="edge6" class="edge"><title>\\FFmpegOutputProvider&#45;&gt;\\AbstractOutputProvider</title>
<path fill="none" stroke="black" d="M438.839,-277.234C418.209,-274.828 395.61,-272.192 374.166,-269.691"/>
<polygon fill="none" stroke="black" points="374.414,-266.196 364.076,-268.514 373.603,-273.149 374.414,-266.196"/>
</g>
<!-- \\FFprobeOutputProvider -->
<g id="node10" class="node"><title>\\FFprobeOutputProvider</title>
<polygon fill="none" stroke="black" points="594,-250 436,-250 436,-214 594,-214 594,-250"/>
<text text-anchor="middle" x="515" y="-229.2" font-family="Courier,monospace" font-size="11.00">FFprobeOutputProvider</text>
</g>
<!-- \\FFprobeOutputProvider&#45;&gt;\\AbstractOutputProvider -->
<g id="edge7" class="edge"><title>\\FFprobeOutputProvider&#45;&gt;\\AbstractOutputProvider</title>
<path fill="none" stroke="black" d="M435.947,-241.103C416.094,-243.419 394.579,-245.928 374.117,-248.315"/>
<polygon fill="none" stroke="black" points="373.696,-244.84 364.169,-249.475 374.507,-251.793 373.696,-244.84"/>
</g>
<!-- \\StringOutputProvider -->
<g id="node11" class="node"><title>\\StringOutputProvider</title>
<polygon fill="none" stroke="black" points="591,-412 439,-412 439,-376 591,-376 591,-412"/>
<text text-anchor="middle" x="515" y="-391.2" font-family="Courier,monospace" font-size="11.00">StringOutputProvider</text>
</g>
<!-- \\StringOutputProvider&#45;&gt;\\AbstractOutputProvider -->
<g id="edge8" class="edge"><title>\\StringOutputProvider&#45;&gt;\\AbstractOutputProvider</title>
<path fill="none" stroke="black" d="M455.739,-375.866C448.965,-373.164 442.25,-370.2 436,-367 389.87,-343.382 341.81,-307.424 312.024,-283.576"/>
<polygon fill="none" stroke="black" points="314.102,-280.755 304.124,-277.191 309.701,-286.199 314.102,-280.755"/>
</g>
</g>
</svg>
