<?xml version="1.0" encoding="UTF-8" standalone="no"?>
<!DOCTYPE svg PUBLIC "-//W3C//DTD SVG 1.1//EN"
 "http://www.w3.org/Graphics/SVG/1.1/DTD/svg11.dtd">
<!-- Generated by graphviz version 2.38.0 (20140413.2041)
 -->
<!-- Title: G Pages: 1 -->
<svg width="599pt" height="690pt"
 viewBox="0.00 0.00 599.00 690.00" xmlns="http://www.w3.org/2000/svg" xmlns:xlink="http://www.w3.org/1999/xlink">
<g id="graph0" class="graph" transform="scale(1 1) rotate(0) translate(4 686)">
<title>G</title>
<polygon fill="white" stroke="none" points="-4,4 -4,-686 595,-686 595,4 -4,4"/>
<g id="clust1" class="cluster"><title>cluster_Global</title>
<path fill="none" stroke="gray" d="M20,-44C20,-44 571,-44 571,-44 577,-44 583,-50 583,-56 583,-56 583,-662 583,-662 583,-668 577,-674 571,-674 571,-674 20,-674 20,-674 14,-674 8,-668 8,-662 8,-662 8,-56 8,-56 8,-50 14,-44 20,-44"/>
<text text-anchor="middle" x="295.5" y="-661.2" font-family="Times,serif" font-size="11.00" fill="gray">Global</text>
</g>
<g id="clust2" class="cluster"><title>cluster_\Char0n</title>
<path fill="none" stroke="gray" d="M28,-52C28,-52 563,-52 563,-52 569,-52 575,-58 575,-64 575,-64 575,-634 575,-634 575,-640 569,-646 563,-646 563,-646 28,-646 28,-646 22,-646 16,-640 16,-634 16,-634 16,-64 16,-64 16,-58 22,-52 28,-52"/>
<text text-anchor="middle" x="295.5" y="-633.2" font-family="Times,serif" font-size="11.00" fill="gray">Char0n</text>
</g>
<g id="clust3" class="cluster"><title>cluster_\Char0n\FFMpegPHP</title>
<path fill="none" stroke="gray" d="M36,-60C36,-60 555,-60 555,-60 561,-60 567,-66 567,-72 567,-72 567,-606 567,-606 567,-612 561,-618 555,-618 555,-618 36,-618 36,-618 30,-618 24,-612 24,-606 24,-606 24,-72 24,-72 24,-66 30,-60 36,-60"/>
<text text-anchor="middle" x="295.5" y="-605.2" font-family="Times,serif" font-size="11.00" fill="gray">FFMpegPHP</text>
</g>
<g id="clust4" class="cluster"><title>cluster_\Char0n\FFMpegPHP\OutputProviders</title>
<path fill="none" stroke="gray" d="M44,-410C44,-410 540.5,-410 540.5,-410 546.5,-410 552.5,-416 552.5,-422 552.5,-422 552.5,-578 552.5,-578 552.5,-584 546.5,-590 540.5,-590 540.5,-590 44,-590 44,-590 38,-590 32,-584 32,-578 32,-578 32,-422 32,-422 32,-416 38,-410 44,-410"/>
<text text-anchor="middle" x="292.25" y="-577.2" font-family="Times,serif" font-size="11.00" fill="gray">OutputProviders</text>
</g>
<g id="clust5" class="cluster"><title>cluster_\Char0n\FFMpegPHP\Adapters</title>
<path fill="none" stroke="gray" d="M424,-222C424,-222 547,-222 547,-222 553,-222 559,-228 559,-234 559,-234 559,-390 559,-390 559,-396 553,-402 547,-402 547,-402 424,-402 424,-402 418,-402 412,-396 412,-390 412,-390 412,-234 412,-234 412,-228 418,-222 424,-222"/>
<text text-anchor="middle" x="485.5" y="-389.2" font-family="Times,serif" font-size="11.00" fill="gray">Adapters</text>
</g>
<!-- \\Char0n\\FFMpegPHP\\OutputProviders\\FFMpegProvider -->
<g id="node1" class="node"><title>\\Char0n\\FFMpegPHP\\OutputProviders\\FFMpegProvider</title>
<polygon fill="none" stroke="black" points="541,-562 430,-562 430,-526 541,-526 541,-562"/>
<text text-anchor="middle" x="485.5" y="-541.2" font-family="Courier,monospace" font-size="11.00">FFMpegProvider</text>
</g>
<!-- \\Char0n\\FFMpegPHP\\OutputProviders\\AbstractProvider -->
<g id="node2" class="node"><title>\\Char0n\\FFMpegPHP\\OutputProviders\\AbstractProvider</title>
<polygon fill="none" stroke="black" points="348,-481 223,-481 223,-445 348,-445 348,-481"/>
<text text-anchor="start" x="251.5" y="-466.2" font-family="Courier,monospace" font-size="11.00">«abstract»</text>
<text text-anchor="start" x="231" y="-454.2" font-family="Courier,monospace" font-size="11.00">AbstractProvider</text>
</g>
<!-- \\Char0n\\FFMpegPHP\\OutputProviders\\FFMpegProvider&#45;&gt;\\Char0n\\FFMpegPHP\\OutputProviders\\AbstractProvider -->
<g id="edge3" class="edge"><title>\\Char0n\\FFMpegPHP\\OutputProviders\\FFMpegProvider&#45;&gt;\\Char0n\\FFMpegPHP\\OutputProviders\\AbstractProvider</title>
<path fill="none" stroke="black" d="M434.844,-525.882C427.171,-522.974 419.355,-519.95 412,-517 386.846,-506.912 359.146,-495.072 336.183,-485.053"/>
<polygon fill="none" stroke="black" points="337.545,-481.829 326.98,-481.026 334.738,-488.242 337.545,-481.829"/>
</g>
<!-- \\Char0n\\FFMpegPHP\\OutputProviders\\OutputProvider -->
<g id="node5" class="node"><title>\\Char0n\\FFMpegPHP\\OutputProviders\\OutputProvider</title>
<polygon fill="none" stroke="black" points="151,-481 40,-481 40,-445 151,-445 151,-481"/>
<text text-anchor="middle" x="95.5" y="-460.2" font-family="Courier,monospace" font-size="11.00">OutputProvider</text>
</g>
<!-- \\Char0n\\FFMpegPHP\\OutputProviders\\AbstractProvider&#45;&gt;\\Char0n\\FFMpegPHP\\OutputProviders\\OutputProvider -->
<g id="edge4" class="edge"><title>\\Char0n\\FFMpegPHP\\OutputProviders\\AbstractProvider&#45;&gt;\\Char0n\\FFMpegPHP\\OutputProviders\\OutputProvider</title>
<path fill="none" stroke="black" stroke-dasharray="1,5" d="M222.942,-463C203.244,-463 181.381,-463 161.45,-463"/>
<polygon fill="none" stroke="black" points="161.225,-459.5 151.225,-463 161.225,-466.5 161.225,-459.5"/>
</g>
<!-- \\Serializable -->
<g id="node12" class="node"><title>\\Serializable</title>
<ellipse fill="none" stroke="black" cx="95.5" cy="-18" rx="54.6905" ry="18"/>
<text text-anchor="middle" x="95.5" y="-14.3" font-family="Times,serif" font-size="14.00" fill="gray">\Serializable</text>
</g>
<!-- \\Char0n\\FFMpegPHP\\OutputProviders\\AbstractProvider&#45;&gt;\\Serializable -->
<g id="edge5" class="edge"><title>\\Char0n\\FFMpegPHP\\OutputProviders\\AbstractProvider&#45;&gt;\\Serializable</title>
<path fill="none" stroke="black" stroke-dasharray="1,5" d="M227.246,-444.936C225.748,-443.709 224.327,-442.399 223,-441 113.905,-325.97 98.5191,-120.702 96.6335,-46.0914"/>
<polygon fill="none" stroke="black" points="100.132,-45.9896 96.4437,-36.0576 93.1336,-46.122 100.132,-45.9896"/>
</g>
<!-- \\Char0n\\FFMpegPHP\\OutputProviders\\FFProbeProvider -->
<g id="node3" class="node"><title>\\Char0n\\FFMpegPHP\\OutputProviders\\FFProbeProvider</title>
<polygon fill="none" stroke="black" points="544.5,-508 426.5,-508 426.5,-472 544.5,-472 544.5,-508"/>
<text text-anchor="middle" x="485.5" y="-487.2" font-family="Courier,monospace" font-size="11.00">FFProbeProvider</text>
</g>
<!-- \\Char0n\\FFMpegPHP\\OutputProviders\\FFProbeProvider&#45;&gt;\\Char0n\\FFMpegPHP\\OutputProviders\\AbstractProvider -->
<g id="edge6" class="edge"><title>\\Char0n\\FFMpegPHP\\OutputProviders\\FFProbeProvider&#45;&gt;\\Char0n\\FFMpegPHP\\OutputProviders\\AbstractProvider</title>
<path fill="none" stroke="black" d="M426.431,-482.082C405.057,-479.167 380.594,-475.831 358.162,-472.772"/>
<polygon fill="none" stroke="black" points="358.398,-469.272 348.017,-471.389 357.452,-476.208 358.398,-469.272"/>
</g>
<!-- \\Char0n\\FFMpegPHP\\OutputProviders\\StringProvider -->
<g id="node4" class="node"><title>\\Char0n\\FFMpegPHP\\OutputProviders\\StringProvider</title>
<polygon fill="none" stroke="black" points="541,-454 430,-454 430,-418 541,-418 541,-454"/>
<text text-anchor="middle" x="485.5" y="-433.2" font-family="Courier,monospace" font-size="11.00">StringProvider</text>
</g>
<!-- \\Char0n\\FFMpegPHP\\OutputProviders\\StringProvider&#45;&gt;\\Char0n\\FFMpegPHP\\OutputProviders\\AbstractProvider -->
<g id="edge7" class="edge"><title>\\Char0n\\FFMpegPHP\\OutputProviders\\StringProvider&#45;&gt;\\Char0n\\FFMpegPHP\\OutputProviders\\AbstractProvider</title>
<path fill="none" stroke="black" d="M429.871,-443.449C407.737,-446.468 381.87,-449.995 358.249,-453.216"/>
<polygon fill="none" stroke="black" points="357.715,-449.756 348.28,-454.575 358.661,-456.692 357.715,-449.756"/>
</g>
<!-- \\Char0n\\FFMpegPHP\\Adapters\\FFMpegMovie -->
<g id="node6" class="node"><title>\\Char0n\\FFMpegPHP\\Adapters\\FFMpegMovie</title>
<polygon fill="none" stroke="black" points="531,-374 440,-374 440,-338 531,-338 531,-374"/>
<text text-anchor="middle" x="485.5" y="-353.2" font-family="Courier,monospace" font-size="11.00">FFMpegMovie</text>
</g>
<!-- \\Char0n\\FFMpegPHP\\Adapters\\FFMpegAnimatedGif -->
<g id="node7" class="node"><title>\\Char0n\\FFMpegPHP\\Adapters\\FFMpegAnimatedGif</title>
<polygon fill="none" stroke="black" points="551,-320 420,-320 420,-284 551,-284 551,-320"/>
<text text-anchor="middle" x="485.5" y="-299.2" font-family="Courier,monospace" font-size="11.00">FFMpegAnimatedGif</text>
</g>
<!-- \\Char0n\\FFMpegPHP\\Adapters\\FFMpegFrame -->
<g id="node8" class="node"><title>\\Char0n\\FFMpegPHP\\Adapters\\FFMpegFrame</title>
<polygon fill="none" stroke="black" points="531,-266 440,-266 440,-230 531,-230 531,-266"/>
<text text-anchor="middle" x="485.5" y="-245.2" font-family="Courier,monospace" font-size="11.00">FFMpegFrame</text>
</g>
<!-- \\Char0n\\FFMpegPHP\\AnimatedGif -->
<g id="node9" class="node"><title>\\Char0n\\FFMpegPHP\\AnimatedGif</title>
<polygon fill="none" stroke="black" points="531,-212 440,-212 440,-176 531,-176 531,-212"/>
<text text-anchor="middle" x="485.5" y="-191.2" font-family="Courier,monospace" font-size="11.00">AnimatedGif</text>
</g>
<!-- \\Char0n\\FFMpegPHP\\AnimatedGif&#45;&gt;\\Serializable -->
<g id="edge1" class="edge"><title>\\Char0n\\FFMpegPHP\\AnimatedGif&#45;&gt;\\Serializable</title>
<path fill="none" stroke="black" stroke-dasharray="1,5" d="M439.932,-182.367C399.713,-171.745 338.98,-155.398 286.5,-140"/>
</g>
<!-- \\Char0n\\FFMpegPHP\\Frame -->
<g id="node10" class="node"><title>\\Char0n\\FFMpegPHP\\Frame</title>
<polygon fill="none" stroke="black" points="512.5,-158 458.5,-158 458.5,-122 512.5,-122 512.5,-158"/>
<text text-anchor="middle" x="485.5" y="-137.2" font-family="Courier,monospace" font-size="11.00">Frame</text>
</g>
<!-- \\Char0n\\FFMpegPHP\\Frame&#45;&gt;\\Serializable -->
<g id="edge2" class="edge"><title>\\Char0n\\FFMpegPHP\\Frame&#45;&gt;\\Serializable</title>
<path fill="none" stroke="black" stroke-dasharray="1,5" d="M458.208,-144.606C419.64,-150.343 345.872,-157.421 286.5,-140"/>
</g>
<!-- \\Char0n\\FFMpegPHP\\Movie -->
<g id="node11" class="node"><title>\\Char0n\\FFMpegPHP\\Movie</title>
<polygon fill="none" stroke="black" points="512.5,-104 458.5,-104 458.5,-68 512.5,-68 512.5,-104"/>
<text text-anchor="middle" x="485.5" y="-83.2" font-family="Courier,monospace" font-size="11.00">Movie</text>
</g>
<!-- \\Char0n\\FFMpegPHP\\Movie&#45;&gt;\\Serializable -->
<g id="edge8" class="edge"><title>\\Char0n\\FFMpegPHP\\Movie&#45;&gt;\\Serializable</title>
<path fill="none" stroke="black" stroke-dasharray="1,5" d="M458.202,-94.824C408.239,-111.346 303.082,-144.865 286.5,-140"/>
<path fill="none" stroke="black" stroke-dasharray="1,5" d="M284.5,-140C219.519,-120.934 155.997,-71.4014 121.986,-41.6418"/>
<polygon fill="none" stroke="black" points="124.19,-38.9177 114.39,-34.8915 119.54,-44.1503 124.19,-38.9177"/>
</g>
</g>
</svg>
